<?xml version="1.0" encoding="utf-8"?>
<!-- Generator: Adobe Illustrator 27.5.0, SVG Export Plug-In . SVG Version: 6.00 Build 0)  -->
<svg version="1.1" id="Layer_1" xmlns="http://www.w3.org/2000/svg" xmlns:xlink="http://www.w3.org/1999/xlink" x="0px" y="0px"
	 viewBox="0 0 192 192" style="enable-background:new 0 0 192 192;" xml:space="preserve">
<style type="text/css">
	.st0{fill:#C84DE4;}
</style>
<g id="XMLID_661_">
	<path id="XMLID_411_" class="st0" d="M147.6,100.8h16.7l-11.9-1.6l39.7-2.4L147.6,92l16.7-2.4h-16.7l42.8-11.1l-44.4,4l15.9-5.6
		L150,79.3l36.5-15.9l-42.8,11.9l15.1-7.9L142.8,73l36.5-26.2l-40.5,19l12.7-11.1l-10.3,6.3l28.6-27.8l-35.7,26.2l11.1-12.7
		l-12.7,11.1l26.2-36.5l-30.9,31.7l8.7-15.1l-7.9,9.5l16.7-35.7l-25.4,36.5l6.3-15.9l-7.9,14.3L130.1,4l-18.2,40.5l3.2-16.7l-4,11.1
		l4-39.7l-12.7,44.4V27l-3.2,16.7L96-0.8l-3.2,44.4L89.7,27v11.9L80.1,0l4,44.4l-5.6-15.9l3.2,16.7l-19-40.5l11.9,42.8l-7.9-14.3
		l4,11.1L48.4,11.1l19,40.5L57.1,38.9l8.7,14.3L34.9,21.4l25.4,36.5L46.8,46.8l7.9,9.5L22.2,32.5L54,64.3l-14.3-8.7l12.7,10.3
		l-39.7-19l36.5,25.4l-15.9-5.6l11.1,5.6L5.6,61.1l40.5,19L29.4,77l15.9,5.6l-44.4-4l43.6,11.1H27.8l11.9,1.6L0,93.6l44.4,4.8
		l-16.7,2.4h16.7L1.6,111.9l44.4-4l-15.9,5.6l11.9-2.4L5.6,126.9L48.4,115L33.3,123l15.9-5.6l-36.5,26.2l40.5-19l-12.7,11.1
		l10.3-6.3l-28.6,27.8l35.7-26.2l-11.1,12.7l12.7-11.1L33.3,169l30.9-31.7l-8.7,15.1l7.9-9.5l-16.7,35.7L72.2,142l-6.3,15.9
		l7.9-14.3l-11.9,42.8L80.1,146L77,162.6l4-11.1l-4,39.7l11.9-42.8V165l3.2-16.7l3.2,44.4l3.2-44.4l3.2,16.7v-11.9l9.5,38.9l-3.2-46
		l5.6,15.9l-3.2-16.7l18.2,40.5l-11.9-42.8l8.7,15.1l-4-11.1l22.2,33.3l-19-41.3l11.1,13.5l-8.7-14.3l30.9,31.7l-26.2-37.3
		l12.7,11.1l-7.9-9.5l32.5,23.8l-31.7-31.7l14.3,8.7l-11.9-10.3l40.5,19l-36.5-25.4l15.9,5.6l-11.9-5.6l38.1,11.1l-40.5-19l16.7,3.2
		l-15.9-5.6l44.4,4L147.6,100.8z M96,136.5c-23,0-41.3-18.2-41.3-41.3S73,54,96,54s41.3,18.2,41.3,41.3S119,136.5,96,136.5z"/>
</g>
</svg>
